<svg height="512pt" viewBox="-31 0 512 512" width="512pt" xmlns="http://www.w3.org/2000/svg"><path d="m303.300781 386.199219c-20.101562 22.199219-48.601562 34.800781-78.300781 34.800781-30.300781 0-59.097656-13.199219-79.199219-36l6-54h1.5l9-35.699219c1.800781-8.101562 10.199219-13.199219 18-11.101562h89.398438c7.800781-1.800781 16.203125 3 18 11.101562l9 35.699219h1.5zm0 0" fill="#ffbfab"/><path d="m298.199219 331 5.101562 55.199219c-20.101562 22.199219-48.601562 34.800781-78.300781 34.800781v-136.800781h44.699219c7.800781-1.800781 16.203125 3 18 11.101562l9 35.699219zm0 0" fill="#f89580"/><path d="m450 436v61c0 8.398438-6.597656 15-15 15h-420c-8.402344 0-15-6.601562-15-15v-61c0-57.898438 47.101562-105 105-105h46.800781c2.699219 12.597656 8.101563 24.300781 16.5 34.199219 14.398438 16.5 35.398438 24.597656 56.699219 24.597656 20.699219 0 41.398438-7.796875 55.800781-23.699219 9-10.199218 14.699219-22.199218 17.398438-35.097656h46.800781c57.898438 0 105 47.101562 105 105zm0 0" fill="#4bb9ec"/><path d="m450 436v61c0 8.398438-6.597656 15-15 15h-210v-122.199219c20.699219 0 41.398438-7.800781 55.800781-23.699219 9-10.203124 14.699219-22.203124 17.398438-35.101562h46.800781c57.898438 0 105 47.101562 105 105zm0 0" fill="#009ae4"/><path d="m345 451h-30c-8.289062 0-15-6.710938-15-15s6.710938-15 15-15h30c8.289062 0 15 6.710938 15 15s-6.710938 15-15 15zm0 0" fill="#c6e2e7"/><path d="m342.300781 240c-14.101562 52.800781-61.5 91-117.300781 91-56.699219 0-104.699219-39.402344-117.898438-93.699219-19.203124-80.101562-15.902343-107.101562-17.101562-117.300781h270c-.601562 3.601562 4.800781 35.097656-17.699219 120zm0 0" fill="#ffcebf"/><path d="m342.300781 240c-14.101562 52.800781-61.5 91-117.300781 91v-211h135c-.601562 3.601562 4.800781 35.097656-17.699219 120zm0 0" fill="#ffa78f"/><path d="m360 120c0 16.5-6.597656 31.5-17.699219 42.300781-10.800781 11.097657-25.800781 17.699219-42.300781 17.699219h-150c-33 0-60-27-60-60l135-30zm0 0" fill="#4bb9ec"/><path d="m360 120c0 16.5-6.597656 31.5-17.699219 42.300781-10.800781 11.097657-25.800781 17.699219-42.300781 17.699219h-75v-90zm0 0" fill="#009ae4"/><path d="m360 120h-270c0-66.300781 53.699219-120 120-120h30c66.300781 0 120 53.699219 120 120zm0 0" fill="#66c0ee"/><path d="m360 120h-135v-120h15c66.300781 0 120 53.699219 120 120zm0 0" fill="#00abe9"/><path d="m270 75c0 8.398438-6.597656 15-15 15h-60c-8.402344 0-15-6.601562-15-15 0-8.402344 6.597656-15 15-15h60c8.402344 0 15 6.597656 15 15zm0 0" fill="#deecf1"/><path d="m255 90h-30v-30h30c8.402344 0 15 6.597656 15 15 0 8.398438-6.597656 15-15 15zm0 0" fill="#c6e2e7"/></svg>